<!-- Generated by IcoMoon.io -->
<svg version="1.1" xmlns="http://www.w3.org/2000/svg" width="32" height="32" viewBox="0 0 32 32">
<title>building</title>
<path d="M23.446 13.4v-1.311h7.332v1.311h-7.332zM1.222 30.778v-1.314h29.556v1.314h-29.556zM2.354 28.686v-14.508h6.032v14.508h-6.032zM1.222 13.4v-1.311h7.164v1.311h-7.164zM3.703 11.311v-1.793h2.042v1.793h-2.042zM14.227 28.686v-7.663h3.418v7.663h-3.418zM18.033 20.245h-4.196c-0.215 0-0.389 0.174-0.389 0.389v8.052h-4.284v-22.653h13.504v22.653h-4.246v-8.052c0-0.215-0.174-0.389-0.389-0.389zM23.446 28.686v-14.508h6.2v14.508h-6.2zM8.174 5.255v-1.311h15.523v1.311h-15.523zM9.164 3.167v-1.944h13.504v1.944h-13.504zM26.125 11.311v-1.793h2.042v1.793h-2.042zM31.167 11.311h-2.222v-2.182c0-0.215-0.174-0.389-0.389-0.389h-2.819c-0.215 0-0.389 0.174-0.389 0.389v2.182h-1.902v-5.278h0.64c0.215 0 0.389-0.174 0.389-0.389v-2.089c0-0.215-0.174-0.389-0.389-0.389h-0.64v-2.333c0-0.215-0.174-0.389-0.389-0.389h-14.282c-0.215 0-0.389 0.174-0.389 0.389v2.333h-0.602c-0.215 0-0.389 0.174-0.389 0.389v2.089c0 0.215 0.174 0.389 0.389 0.389h0.602v5.278h-1.864v-2.182c0-0.215-0.174-0.389-0.389-0.389h-2.819c-0.215 0-0.389 0.174-0.389 0.389v2.182h-2.092c-0.215 0-0.389 0.174-0.389 0.389v2.089c0 0.215 0.174 0.389 0.389 0.389h0.743v14.508h-0.743c-0.215 0-0.389 0.174-0.389 0.389v2.092c0 0.215 0.174 0.389 0.389 0.389h30.333c0.215 0 0.389-0.174 0.389-0.389v-2.092c0-0.215-0.174-0.389-0.389-0.389h-0.743v-14.508h0.743c0.215 0 0.389-0.174 0.389-0.389v-2.089c0-0.215-0.174-0.389-0.389-0.389z"></path>
<path d="M25.722 25.445v-2.891h1.89v2.891h-1.89zM28.028 21.778h-2.723c-0.23 0-0.416 0.174-0.416 0.388v3.668c0 0.215 0.186 0.388 0.416 0.388h2.723c0.23 0 0.416-0.174 0.416-0.388v-3.668c0-0.215-0.186-0.388-0.416-0.388z"></path>
<path d="M25.722 19.668v-2.891h1.89v2.891h-1.89zM28.028 16h-2.723c-0.23 0-0.416 0.174-0.416 0.388v3.668c0 0.215 0.186 0.388 0.416 0.388h2.723c0.23 0 0.416-0.174 0.416-0.388v-3.668c0-0.215-0.186-0.388-0.416-0.388z"></path>
<path d="M4.388 25.445v-2.891h1.89v2.891h-1.89zM3.972 26.222h2.723c0.23 0 0.416-0.174 0.416-0.388v-3.668c0-0.215-0.187-0.388-0.416-0.388h-2.723c-0.23 0-0.416 0.174-0.416 0.388v3.668c0 0.215 0.186 0.388 0.416 0.388z"></path>
<path d="M4.388 19.668v-2.891h1.89v2.891h-1.89zM3.972 20.444h2.723c0.23 0 0.416-0.174 0.416-0.388v-3.668c0-0.215-0.187-0.388-0.416-0.388h-2.723c-0.23 0-0.416 0.174-0.416 0.388v3.668c0 0.215 0.186 0.388 0.416 0.388z"></path>
<path d="M18.166 18.334v-2.891h1.89v2.891h-1.89zM20.889 18.723v-3.668c0-0.215-0.186-0.388-0.416-0.388h-2.723c-0.23 0-0.416 0.174-0.416 0.388v3.668c0 0.215 0.186 0.388 0.416 0.388h2.723c0.23 0 0.416-0.174 0.416-0.388z"></path>
<path d="M18.166 12.112v-2.891h1.89v2.891h-1.89zM17.75 12.889h2.723c0.23 0 0.416-0.174 0.416-0.388v-3.668c0-0.215-0.186-0.388-0.416-0.388h-2.723c-0.23 0-0.416 0.174-0.416 0.388v3.668c0 0.215 0.186 0.388 0.416 0.388z"></path>
<path d="M12.389 18.334v-2.891h1.89v2.891h-1.89zM14.695 14.667h-2.723c-0.23 0-0.416 0.174-0.416 0.388v3.668c0 0.215 0.186 0.388 0.416 0.388h2.723c0.23 0 0.416-0.174 0.416-0.388v-3.668c0-0.215-0.186-0.388-0.416-0.388z"></path>
<path d="M12.389 12.112v-2.891h1.89v2.891h-1.89zM14.695 8.444h-2.723c-0.23 0-0.416 0.174-0.416 0.388v3.668c0 0.215 0.186 0.388 0.416 0.388h2.723c0.23 0 0.416-0.174 0.416-0.388v-3.668c0-0.215-0.186-0.388-0.416-0.388z"></path>
</svg>
