<!-- Generated by IcoMoon.io -->
<svg version="1.1" xmlns="http://www.w3.org/2000/svg" width="33" height="32" viewBox="0 0 33 32">
<title>calendar</title>
<path d="M12.838 9.713h-1.318c-0.64 0-1.129 0.489-1.129 1.129s0.489 1.129 1.129 1.129h1.318c0.64 0 1.129-0.489 1.129-1.129s-0.527-1.129-1.129-1.129z"></path>
<path d="M7.567 9.713h-1.318c-0.64 0-1.129 0.489-1.129 1.129s0.489 1.129 1.129 1.129h1.318c0.64 0 1.129-0.489 1.129-1.129s-0.527-1.129-1.129-1.129z"></path>
<path d="M16.791 11.972h1.318c0.64 0 1.129-0.489 1.129-1.129s-0.489-1.129-1.129-1.129h-1.318c-0.64 0-1.129 0.489-1.129 1.129s0.489 1.129 1.129 1.129z"></path>
<path d="M22.061 11.972h1.318c0.64 0 1.129-0.489 1.129-1.129s-0.489-1.129-1.129-1.129h-1.318c-0.64 0-1.129 0.489-1.129 1.129s0.489 1.129 1.129 1.129z"></path>
<path d="M12.838 14.155h-1.318c-0.64 0-1.129 0.489-1.129 1.129s0.489 1.129 1.129 1.129h1.318c0.64 0 1.129-0.489 1.129-1.129s-0.527-1.129-1.129-1.129z"></path>
<path d="M7.567 14.155h-1.318c-0.64 0-1.129 0.489-1.129 1.129s0.489 1.129 1.129 1.129h1.318c0.64 0 1.129-0.489 1.129-1.129s-0.527-1.129-1.129-1.129z"></path>
<path d="M12.838 18.485h-1.318c-0.64 0-1.129 0.489-1.129 1.129s0.489 1.129 1.129 1.129h1.318c0.64 0 1.129-0.489 1.129-1.129s-0.527-1.129-1.129-1.129z"></path>
<path d="M7.567 18.485h-1.318c-0.64 0-1.129 0.489-1.129 1.129s0.489 1.129 1.129 1.129h1.318c0.64 0 1.129-0.489 1.129-1.129s-0.527-1.129-1.129-1.129z"></path>
<path d="M23.755 29.402c-3.991 0-7.228-3.238-7.228-7.228s3.238-7.228 7.228-7.228 7.228 3.237 7.228 7.228c0 3.99-3.275 7.228-7.228 7.228zM2.259 23.83v-18.899h1.769v0.64c0 0.64 0.489 1.129 1.129 1.129s1.129-0.489 1.129-1.129v-0.64h17.054v0.64c0 0.64 0.489 1.129 1.129 1.129s1.129-0.489 1.129-1.129v-0.64h1.769v8.471c-1.129-0.452-2.334-0.715-3.614-0.715-1.92 0-3.689 0.565-5.195 1.543-0.151-0.075-0.301-0.075-0.452-0.075h-1.318c-0.64 0-1.129 0.489-1.129 1.129 0 0.452 0.264 0.828 0.64 1.016-1.28 1.619-2.033 3.652-2.033 5.873 0 0.565 0.038 1.129 0.151 1.694h-12.16v-0.038zM29.628 14.72v-10.918c0-0.64-0.489-1.129-1.129-1.129h-2.899v-1.167c0-0.64-0.489-1.129-1.129-1.129s-1.129 0.489-1.129 1.129v1.167h-17.054v-1.167c0-0.64-0.489-1.129-1.129-1.129s-1.129 0.489-1.129 1.129v1.167h-2.899c-0.64 0-1.129 0.489-1.129 1.129v21.196c0 0.64 0.489 1.129 1.129 1.129h14.005c1.506 3.275 4.819 5.534 8.621 5.534 5.233 0 9.487-4.254 9.487-9.487-0.038-3.050-1.431-5.722-3.614-7.454z"></path>
<path d="M26.805 21.685h-2.372v-3.501c0-0.64-0.489-1.129-1.129-1.129s-1.129 0.489-1.129 1.129v4.631c0 0.64 0.489 1.129 1.129 1.129h3.501c0.64 0 1.129-0.489 1.129-1.129s-0.489-1.129-1.129-1.129z"></path>
</svg>
