<!-- Generated by IcoMoon.io -->
<svg version="1.1" xmlns="http://www.w3.org/2000/svg" width="32" height="32" viewBox="0 0 32 32">
<title>envelope</title>
<path d="M2.382 7.811l9.417 8.189-9.42 8.191c-0.236-0.224-0.381-0.542-0.381-0.894v-14.593c0-0.352 0.147-0.669 0.383-0.892zM29.62 7.809c0.236 0.224 0.381 0.542 0.381 0.894v14.593c0 0.352-0.147 0.669-0.384 0.892l-9.417-8.189 9.42-8.191zM19.29 16.792l8.886 7.73h-24.35l8.886-7.73 3.29 2.86 3.29-2.86zM3.221 6.26c-1.347 0-2.439 1.089-2.439 2.428v14.624c0 1.341 1.083 2.428 2.439 2.428h25.559c1.347 0 2.439-1.089 2.439-2.428v-14.624c0-1.341-1.083-2.428-2.439-2.428h-25.559zM16 18.070l-12.175-10.592h24.35l-12.175 10.592z"></path>
</svg>
