<!-- Generated by IcoMoon.io -->
<svg version="1.1" xmlns="http://www.w3.org/2000/svg" width="28" height="32" viewBox="0 0 28 32">
<title>lightbulb</title>
<path d="M13.84 8.014c1.794-0.097 3.498 0.526 4.798 1.757 1.301 1.232 2.018 2.897 2.018 4.689 0 1.678-0.642 3.266-1.81 4.472-1.116 1.159-1.858 2.634-2.125 4.187l-4.933 1.071c-0.062-1.946-0.853-3.812-2.258-5.279-1.171-1.222-1.806-2.828-1.788-4.521 0.037-3.392 2.716-6.192 6.098-6.375zM8.805 19.605c1.284 1.34 1.991 3.056 1.991 4.829v0.365c-0.001 0.040 0.001 0.079 0.010 0.119 0.001 0.005 0.005 0.010 0.006 0.016 0.011 0.045 0.029 0.088 0.052 0.128 0.005 0.008 0.008 0.016 0.013 0.024 0.026 0.041 0.059 0.075 0.096 0.107 0.007 0.006 0.014 0.011 0.021 0.017 0.039 0.030 0.082 0.054 0.129 0.072 0.005 0.002 0.011 0.003 0.016 0.005 0.050 0.017 0.103 0.028 0.159 0.028 0.041 0 0.080-0.006 0.118-0.015l5.851-1.27c0.005-0.001 0.008-0.003 0.013-0.004 0.020-0.005 0.039-0.012 0.058-0.019 0.012-0.005 0.024-0.009 0.035-0.014 0.018-0.008 0.035-0.018 0.051-0.029 0.011-0.007 0.022-0.013 0.033-0.021 0.016-0.012 0.030-0.025 0.045-0.038 0.009-0.008 0.018-0.016 0.027-0.026 0.014-0.015 0.026-0.031 0.038-0.048 0.007-0.009 0.014-0.018 0.020-0.028 0.011-0.017 0.019-0.036 0.028-0.054 0.005-0.011 0.011-0.022 0.015-0.034 0.006-0.018 0.011-0.036 0.016-0.054 0.004-0.014 0.007-0.028 0.010-0.043 0.001-0.006 0.003-0.012 0.004-0.018 0.181-1.468 0.858-2.878 1.909-3.968 1.349-1.394 2.092-3.23 2.092-5.17 0-2.070-0.828-3.994-2.332-5.418-1.502-1.423-3.468-2.143-5.543-2.031-3.909 0.211-7.005 3.447-7.048 7.368-0.021 1.957 0.713 3.814 2.067 5.227z"></path>
<path stroke-linejoin="miter" stroke-linecap="butt" stroke-miterlimit="4" stroke-width="0.4706" stroke="#000" fill="#000" d="M13.697 16.086v6.22c0 0.278 0.225 0.502 0.502 0.502s0.502-0.225 0.502-0.502v-6.22l1.816-1.816c0.196-0.196 0.196-0.514 0-0.71s-0.514-0.196-0.71 0l-1.608 1.608-1.608-1.608c-0.196-0.196-0.514-0.196-0.71 0s-0.196 0.514 0 0.71l1.816 1.816z"></path>
<path d="M17.024 24.964l-5.863 1.273c-0.271 0.059-0.443 0.326-0.384 0.597 0.051 0.235 0.259 0.396 0.49 0.396 0.035 0 0.071-0.004 0.107-0.012l5.864-1.272c0.271-0.059 0.443-0.327 0.384-0.598s-0.326-0.444-0.598-0.384z"></path>
<path d="M17.651 27.266c-0.059-0.271-0.327-0.444-0.597-0.384l-5.864 1.273c-0.271 0.059-0.443 0.327-0.384 0.598 0.051 0.235 0.259 0.396 0.49 0.396 0.035 0 0.071-0.004 0.107-0.012l5.864-1.273c0.271-0.059 0.443-0.326 0.384-0.598z"></path>
<path d="M16.484 29.087c0.036-0.275-0.158-0.528-0.433-0.564-0.274-0.035-0.527 0.158-0.564 0.433-0.084 0.642-0.639 1.126-1.29 1.126-0.347 0-0.675-0.136-0.922-0.384-0.070-0.070-0.129-0.143-0.174-0.218-0.143-0.238-0.451-0.315-0.689-0.172s-0.315 0.451-0.172 0.689c0.087 0.145 0.196 0.284 0.324 0.411 0.437 0.438 1.017 0.679 1.633 0.679 1.153 0 2.136-0.86 2.286-2z"></path>
<path stroke-linejoin="miter" stroke-linecap="butt" stroke-miterlimit="4" stroke-width="0.9412" stroke="#000" fill="#000" d="M1.444 14.701h3.126c0.278 0 0.502-0.225 0.502-0.502s-0.225-0.502-0.502-0.502h-3.126c-0.278 0-0.502 0.225-0.502 0.502s0.225 0.502 0.502 0.502"></path>
<path d="M23.326 14.199c0 0.278 0.225 0.502 0.502 0.502h3.126c0.278 0 0.502-0.225 0.502-0.502s-0.225-0.502-0.502-0.502h-3.126c-0.278 0-0.502 0.225-0.502 0.502z"></path>
<path stroke-linejoin="miter" stroke-linecap="butt" stroke-miterlimit="4" stroke-width="0.4706" stroke="#000" fill="#000" d="M0.941 14.233c0 0.278 0.225 0.502 0.502 0.502h3.126c0.278 0 0.502-0.225 0.502-0.502s-0.225-0.502-0.502-0.502h-3.126c-0.278 0-0.502 0.225-0.502 0.502"></path>
<path stroke-linejoin="miter" stroke-linecap="butt" stroke-miterlimit="4" stroke-width="0.4706" stroke="#000" fill="#000" d="M14.199 5.072c0.278 0 0.502-0.225 0.502-0.502v-3.126c0-0.278-0.225-0.502-0.502-0.502s-0.502 0.225-0.502 0.502v3.126c0 0.278 0.225 0.502 0.502 0.502"></path>
<path stroke-linejoin="miter" stroke-linecap="butt" stroke-miterlimit="4" stroke-width="0.4706" stroke="#000" fill="#000" d="M21.008 7.892c0.129 0 0.257-0.049 0.355-0.147l2.21-2.21c0.196-0.196 0.196-0.514 0-0.71s-0.514-0.196-0.71 0l-2.211 2.21c-0.196 0.196-0.196 0.514 0 0.71 0.098 0.098 0.227 0.147 0.355 0.147"></path>
<path stroke-linejoin="miter" stroke-linecap="butt" stroke-miterlimit="4" stroke-width="0.4706" stroke="#000" fill="#000" d="M7.035 20.652l-2.21 2.211c-0.196 0.196-0.196 0.514 0 0.71 0.098 0.098 0.227 0.147 0.355 0.147s0.257-0.049 0.355-0.147l2.21-2.211c0.196-0.196 0.196-0.514 0-0.71s-0.514-0.196-0.711 0"></path>
<path stroke-linejoin="miter" stroke-linecap="butt" stroke-miterlimit="4" stroke-width="0.4706" stroke="#000" fill="#000" d="M7.035 7.745c0.098 0.098 0.227 0.147 0.355 0.147s0.257-0.049 0.355-0.147c0.196-0.196 0.196-0.514 0-0.71l-2.21-2.21c-0.196-0.196-0.514-0.196-0.71 0s-0.196 0.514 0 0.71l2.21 2.21z"></path>
<path stroke-linejoin="miter" stroke-linecap="butt" stroke-miterlimit="4" stroke-width="0.4706" stroke="#000" fill="#000" d="M23.218 23.72c0.129 0 0.258-0.049 0.356-0.147 0.196-0.196 0.196-0.515 0-0.711l-2.211-2.21c-0.196-0.196-0.514-0.196-0.71 0s-0.196 0.514 0 0.71l2.21 2.211c0.098 0.098 0.226 0.147 0.355 0.147"></path>
</svg>
