<!-- Generated by IcoMoon.io -->
<svg version="1.1" xmlns="http://www.w3.org/2000/svg" width="37" height="32" viewBox="0 0 37 32">
<title>note</title>
<path d="M25.813 27.307c-0.589 0-1.067-0.478-1.067-1.067v-24.107h-22.613v24.107c0 0.589-0.477 1.067-1.067 1.067s-1.067-0.478-1.067-1.067v-25.173c0-0.59 0.478-1.067 1.067-1.067h24.747c0.589 0 1.067 0.477 1.067 1.067v25.173c0 0.589-0.478 1.067-1.067 1.067z"></path>
<path d="M30.507 32c-3.177 0-5.761-2.584-5.761-5.76 0-0.589 0.478-1.067 1.067-1.067s1.067 0.478 1.067 1.067c0 2 1.627 3.627 3.627 3.627s3.627-1.627 3.627-3.627v-2.425h-8.321c-0.589 0-1.067-0.477-1.067-1.067s0.478-1.067 1.067-1.067h9.387c0.589 0 1.067 0.478 1.067 1.067v3.492c0 3.176-2.584 5.76-5.76 5.76z"></path>
<path d="M30.507 32h-24.747c-3.177 0-5.76-2.584-5.76-5.76 0-0.589 0.477-1.067 1.067-1.067s1.067 0.478 1.067 1.067c0 2 1.627 3.627 3.627 3.627h24.747c0.589 0 1.067 0.478 1.067 1.067s-0.478 1.067-1.067 1.067z"></path>
<path d="M20.693 18.347h-14.506c-0.59 0-1.067-0.477-1.067-1.067s0.477-1.067 1.067-1.067h14.506c0.589 0 1.067 0.477 1.067 1.067s-0.478 1.067-1.067 1.067z"></path>
<path d="M20.693 24.32h-14.506c-0.59 0-1.067-0.477-1.067-1.067s0.477-1.067 1.067-1.067h14.506c0.589 0 1.067 0.477 1.067 1.067s-0.478 1.067-1.067 1.067z"></path>
<path d="M7.253 10.24h12.373v-2.133h-12.373v2.133zM20.693 12.373h-14.507c-0.589 0-1.067-0.477-1.067-1.067v-4.267c0-0.59 0.478-1.067 1.067-1.067h14.507c0.589 0 1.067 0.477 1.067 1.067v4.267c0 0.589-0.478 1.067-1.067 1.067z"></path>
</svg>
