<!-- Generated by IcoMoon.io -->
<svg version="1.1" xmlns="http://www.w3.org/2000/svg" width="32" height="32" viewBox="0 0 32 32">
<title>pdf</title>
<path d="M23.677 6.668c-1.431 0-2.582-1.179-2.582-2.567v-4.024h-15.877c-0.489 0-0.907 0.416-0.907 0.902v30.041c0 0.486 0.419 0.902 0.907 0.902h21.6c0.489 0 0.872-0.416 0.872-0.902v-24.352h-4.013zM11.848 16.139c-0.384 0.347-0.942 0.486-1.745 0.486h-1.152v1.769c0 1.041-1.256 1.041-1.256 0v-4.787c0-0.555 0.244-0.763 0.803-0.763 0.698 0 2.163-0.035 2.722 0.104 1.535 0.416 1.535 2.463 0.628 3.191zM18.757 16.937c-0.209 1.075-0.907 1.873-2.024 2.047l-2.408 0.069c-0.663 0-0.803-0.278-0.803-0.902v-4.544c0-0.555 0.244-0.763 0.768-0.763 0.768 0 2.094-0.069 2.757 0.104 1.605 0.416 2.059 2.428 1.71 3.989zM24.13 13.676c-0.105 0.104-0.244 0.139-0.454 0.139h-2.478v1.596h2.094c0.768 0 0.768 0.937 0 0.937h-2.094v2.047c0 0.902-0.803 0.902-1.082 0.59-0.105-0.139-0.174-0.347-0.174-0.59v-4.787c0-0.555 0.244-0.763 0.768-0.763h2.966c0.698 0 0.698 0.624 0.454 0.833z"></path>
<path d="M9.824 13.78h-0.837v1.908h-0.035c0.907 0 2.233 0.173 2.233-0.971 0-0.763-0.523-0.937-1.361-0.937z"></path>
<path d="M15.616 13.884h-0.837v4.197c0.523 0 1.396 0.035 1.815-0.104 1.186-0.416 1.117-2.706 0.698-3.4-0.384-0.624-0.942-0.694-1.675-0.694z"></path>
<path d="M23.677 5.142h2.931l-4.013-3.989v2.914c0 0.624 0.489 1.075 1.082 1.075z"></path>
</svg>
