<!-- Generated by IcoMoon.io -->
<svg version="1.1" xmlns="http://www.w3.org/2000/svg" width="32" height="32" viewBox="0 0 32 32">
<title>search</title>
<path d="M12.439 0c-6.869 0-12.439 5.569-12.439 12.437s5.57 12.437 12.439 12.437c2.641 0 5.091-0.824 7.105-2.227l0.001-0.001 9.225 9.224c0.171 0.171 0.443 0.176 0.619 0l2.486-2.486c0.171-0.171 0.162-0.455-0.001-0.619l-9.224-9.223c1.403-2.015 2.227-4.464 2.227-7.105 0-6.868-5.57-12.437-12.439-12.437zM12.439 21.948c-5.253 0-9.512-4.258-9.512-9.511s4.258-9.511 9.512-9.511c5.253 0 9.512 4.258 9.512 9.511s-4.258 9.511-9.512 9.511z"></path>
</svg>
