<?xml version="1.0" encoding="utf-8"?>
<svg xmlns="http://www.w3.org/2000/svg">
<symbol id="arrow-left" viewBox="0 0 32 32">
<title>arrow-left</title>
<path d="M0 16l8-8 1.714 1.714-5.143 5.143h27.429v2.286h-27.429l5.143 5.143-1.714 1.714z"/>

</symbol>
<symbol id="arrow-right" viewBox="0 0 32 32">
<title>arrow-right</title>
<path d="M24 8l8 8-8 8-1.714-1.714 5.143-5.143h-27.429v-2.286h27.429l-5.143-5.143z"/>

</symbol>
<symbol id="arrow-upright" viewBox="0 0 24 24">
<title>arrow-upright</title>
<path d="M9 5.016h9.984v9.984h-1.969v-6.609l-11.625 11.625-1.406-1.406 11.625-11.625h-6.609v-1.969z"/>

</symbol>
<symbol id="arrowex" viewBox="0 0 16 15">
    <!-- Generator: Sketch 54.1 (76490) - https://sketchapp.com -->
    <title>ARROW-2</title>
    <desc>Created with Sketch.</desc>
    <g id="Styleguide" stroke="none" stroke-width="1" fill="none" fill-rule="evenodd">
        <g transform="translate(-1926.000000, -250.000000)" id="ICONS" stroke="currentColor">
            <g transform="translate(1530.000000, 131.000000)">
                <g id="OFF" transform="translate(0.000000, 60.000000)">
                    <g id="ARROW-2" transform="translate(395.000000, 56.000000)">
                        <polyline id="Path-3" transform="translate(14.000000, 6.684211) rotate(-218.000000) translate(-14.000000, -6.684211) " points="17 1 11 6.68421053 17 12.3684211"/>
                        <path d="M18.3333333,10.6842105 L-0.373046875,10.6842105" id="Line" stroke-linecap="square" transform="translate(9.000000, 11.000000) rotate(-39.000000) translate(-9.000000, -11.000000) "/>
                    </g>
                </g>
            </g>
        </g>
    </g>

</symbol>
<symbol id="building" viewBox="0 0 32 32">
<title>building</title>
<path d="M23.446 13.4v-1.311h7.332v1.311h-7.332zM1.222 30.778v-1.314h29.556v1.314h-29.556zM2.354 28.686v-14.508h6.032v14.508h-6.032zM1.222 13.4v-1.311h7.164v1.311h-7.164zM3.703 11.311v-1.793h2.042v1.793h-2.042zM14.227 28.686v-7.663h3.418v7.663h-3.418zM18.033 20.245h-4.196c-0.215 0-0.389 0.174-0.389 0.389v8.052h-4.284v-22.653h13.504v22.653h-4.246v-8.052c0-0.215-0.174-0.389-0.389-0.389zM23.446 28.686v-14.508h6.2v14.508h-6.2zM8.174 5.255v-1.311h15.523v1.311h-15.523zM9.164 3.167v-1.944h13.504v1.944h-13.504zM26.125 11.311v-1.793h2.042v1.793h-2.042zM31.167 11.311h-2.222v-2.182c0-0.215-0.174-0.389-0.389-0.389h-2.819c-0.215 0-0.389 0.174-0.389 0.389v2.182h-1.902v-5.278h0.64c0.215 0 0.389-0.174 0.389-0.389v-2.089c0-0.215-0.174-0.389-0.389-0.389h-0.64v-2.333c0-0.215-0.174-0.389-0.389-0.389h-14.282c-0.215 0-0.389 0.174-0.389 0.389v2.333h-0.602c-0.215 0-0.389 0.174-0.389 0.389v2.089c0 0.215 0.174 0.389 0.389 0.389h0.602v5.278h-1.864v-2.182c0-0.215-0.174-0.389-0.389-0.389h-2.819c-0.215 0-0.389 0.174-0.389 0.389v2.182h-2.092c-0.215 0-0.389 0.174-0.389 0.389v2.089c0 0.215 0.174 0.389 0.389 0.389h0.743v14.508h-0.743c-0.215 0-0.389 0.174-0.389 0.389v2.092c0 0.215 0.174 0.389 0.389 0.389h30.333c0.215 0 0.389-0.174 0.389-0.389v-2.092c0-0.215-0.174-0.389-0.389-0.389h-0.743v-14.508h0.743c0.215 0 0.389-0.174 0.389-0.389v-2.089c0-0.215-0.174-0.389-0.389-0.389z"/>
<path d="M25.722 25.445v-2.891h1.89v2.891h-1.89zM28.028 21.778h-2.723c-0.23 0-0.416 0.174-0.416 0.388v3.668c0 0.215 0.186 0.388 0.416 0.388h2.723c0.23 0 0.416-0.174 0.416-0.388v-3.668c0-0.215-0.186-0.388-0.416-0.388z"/>
<path d="M25.722 19.668v-2.891h1.89v2.891h-1.89zM28.028 16h-2.723c-0.23 0-0.416 0.174-0.416 0.388v3.668c0 0.215 0.186 0.388 0.416 0.388h2.723c0.23 0 0.416-0.174 0.416-0.388v-3.668c0-0.215-0.186-0.388-0.416-0.388z"/>
<path d="M4.388 25.445v-2.891h1.89v2.891h-1.89zM3.972 26.222h2.723c0.23 0 0.416-0.174 0.416-0.388v-3.668c0-0.215-0.187-0.388-0.416-0.388h-2.723c-0.23 0-0.416 0.174-0.416 0.388v3.668c0 0.215 0.186 0.388 0.416 0.388z"/>
<path d="M4.388 19.668v-2.891h1.89v2.891h-1.89zM3.972 20.444h2.723c0.23 0 0.416-0.174 0.416-0.388v-3.668c0-0.215-0.187-0.388-0.416-0.388h-2.723c-0.23 0-0.416 0.174-0.416 0.388v3.668c0 0.215 0.186 0.388 0.416 0.388z"/>
<path d="M18.166 18.334v-2.891h1.89v2.891h-1.89zM20.889 18.723v-3.668c0-0.215-0.186-0.388-0.416-0.388h-2.723c-0.23 0-0.416 0.174-0.416 0.388v3.668c0 0.215 0.186 0.388 0.416 0.388h2.723c0.23 0 0.416-0.174 0.416-0.388z"/>
<path d="M18.166 12.112v-2.891h1.89v2.891h-1.89zM17.75 12.889h2.723c0.23 0 0.416-0.174 0.416-0.388v-3.668c0-0.215-0.186-0.388-0.416-0.388h-2.723c-0.23 0-0.416 0.174-0.416 0.388v3.668c0 0.215 0.186 0.388 0.416 0.388z"/>
<path d="M12.389 18.334v-2.891h1.89v2.891h-1.89zM14.695 14.667h-2.723c-0.23 0-0.416 0.174-0.416 0.388v3.668c0 0.215 0.186 0.388 0.416 0.388h2.723c0.23 0 0.416-0.174 0.416-0.388v-3.668c0-0.215-0.186-0.388-0.416-0.388z"/>
<path d="M12.389 12.112v-2.891h1.89v2.891h-1.89zM14.695 8.444h-2.723c-0.23 0-0.416 0.174-0.416 0.388v3.668c0 0.215 0.186 0.388 0.416 0.388h2.723c0.23 0 0.416-0.174 0.416-0.388v-3.668c0-0.215-0.186-0.388-0.416-0.388z"/>

</symbol>
<symbol id="calendar" viewBox="0 0 33 32">
<title>calendar</title>
<path d="M12.838 9.713h-1.318c-0.64 0-1.129 0.489-1.129 1.129s0.489 1.129 1.129 1.129h1.318c0.64 0 1.129-0.489 1.129-1.129s-0.527-1.129-1.129-1.129z"/>
<path d="M7.567 9.713h-1.318c-0.64 0-1.129 0.489-1.129 1.129s0.489 1.129 1.129 1.129h1.318c0.64 0 1.129-0.489 1.129-1.129s-0.527-1.129-1.129-1.129z"/>
<path d="M16.791 11.972h1.318c0.64 0 1.129-0.489 1.129-1.129s-0.489-1.129-1.129-1.129h-1.318c-0.64 0-1.129 0.489-1.129 1.129s0.489 1.129 1.129 1.129z"/>
<path d="M22.061 11.972h1.318c0.64 0 1.129-0.489 1.129-1.129s-0.489-1.129-1.129-1.129h-1.318c-0.64 0-1.129 0.489-1.129 1.129s0.489 1.129 1.129 1.129z"/>
<path d="M12.838 14.155h-1.318c-0.64 0-1.129 0.489-1.129 1.129s0.489 1.129 1.129 1.129h1.318c0.64 0 1.129-0.489 1.129-1.129s-0.527-1.129-1.129-1.129z"/>
<path d="M7.567 14.155h-1.318c-0.64 0-1.129 0.489-1.129 1.129s0.489 1.129 1.129 1.129h1.318c0.64 0 1.129-0.489 1.129-1.129s-0.527-1.129-1.129-1.129z"/>
<path d="M12.838 18.485h-1.318c-0.64 0-1.129 0.489-1.129 1.129s0.489 1.129 1.129 1.129h1.318c0.64 0 1.129-0.489 1.129-1.129s-0.527-1.129-1.129-1.129z"/>
<path d="M7.567 18.485h-1.318c-0.64 0-1.129 0.489-1.129 1.129s0.489 1.129 1.129 1.129h1.318c0.64 0 1.129-0.489 1.129-1.129s-0.527-1.129-1.129-1.129z"/>
<path d="M23.755 29.402c-3.991 0-7.228-3.238-7.228-7.228s3.238-7.228 7.228-7.228 7.228 3.237 7.228 7.228c0 3.99-3.275 7.228-7.228 7.228zM2.259 23.83v-18.899h1.769v0.64c0 0.64 0.489 1.129 1.129 1.129s1.129-0.489 1.129-1.129v-0.64h17.054v0.64c0 0.64 0.489 1.129 1.129 1.129s1.129-0.489 1.129-1.129v-0.64h1.769v8.471c-1.129-0.452-2.334-0.715-3.614-0.715-1.92 0-3.689 0.565-5.195 1.543-0.151-0.075-0.301-0.075-0.452-0.075h-1.318c-0.64 0-1.129 0.489-1.129 1.129 0 0.452 0.264 0.828 0.64 1.016-1.28 1.619-2.033 3.652-2.033 5.873 0 0.565 0.038 1.129 0.151 1.694h-12.16v-0.038zM29.628 14.72v-10.918c0-0.64-0.489-1.129-1.129-1.129h-2.899v-1.167c0-0.64-0.489-1.129-1.129-1.129s-1.129 0.489-1.129 1.129v1.167h-17.054v-1.167c0-0.64-0.489-1.129-1.129-1.129s-1.129 0.489-1.129 1.129v1.167h-2.899c-0.64 0-1.129 0.489-1.129 1.129v21.196c0 0.64 0.489 1.129 1.129 1.129h14.005c1.506 3.275 4.819 5.534 8.621 5.534 5.233 0 9.487-4.254 9.487-9.487-0.038-3.050-1.431-5.722-3.614-7.454z"/>
<path d="M26.805 21.685h-2.372v-3.501c0-0.64-0.489-1.129-1.129-1.129s-1.129 0.489-1.129 1.129v4.631c0 0.64 0.489 1.129 1.129 1.129h3.501c0.64 0 1.129-0.489 1.129-1.129s-0.489-1.129-1.129-1.129z"/>

</symbol>
<symbol id="chev-down" viewBox="0 0 32 32">
<title>chev-down</title>
<path d="M16 24.571l-16-16 1.714-1.714 14.286 14.286 14.286-14.286 1.714 1.714z"/>

</symbol>
<symbol id="chev-left" viewBox="0 0 18 32">
<title>chev-left</title>
<path d="M0.571 16l16-16 1.714 1.714-14.286 14.286 14.286 14.286-1.714 1.714z"/>

</symbol>
<symbol id="chev-right" viewBox="0 0 18 32">
<title>chev-right</title>
<path d="M1.714 0l16 16-16 16-1.714-1.714 14.286-14.286-14.286-14.286z"/>

</symbol>
<symbol id="chev-up" viewBox="0 0 32 32">
<title>chev-up</title>
<path d="M16 7.429l16 16-1.714 1.714-14.286-14.286-14.286 14.286-1.714-1.714z"/>

</symbol>
<symbol id="close" viewBox="0 0 32 32">
<title>close</title>
<path d="M32 1.714l-14.286 14.286 14.286 14.286-1.714 1.714-14.286-14.286-14.286 14.286-1.714-1.714 14.286-14.286-14.286-14.286 1.714-1.714 14.286 14.286 14.286-14.286z"/>

</symbol>
<symbol id="doc" viewBox="0 0 23 32">
<title>doc</title>
<path d="M19.419 6.591h4.013v24.352c0 0.486-0.384 0.902-0.872 0.902h-21.6c-0.489 0-0.907-0.416-0.907-0.902v-30.041c0-0.486 0.419-0.902 0.907-0.902h15.877v4.024c0 1.388 1.152 2.567 2.582 2.567zM19.419 5.065c-0.593 0-1.082-0.451-1.082-1.075v-2.914l4.013 3.989h-2.931z"/>

</symbol>
<symbol id="envelope" viewBox="0 0 32 32">
<title>envelope</title>
<path d="M2.382 7.811l9.417 8.189-9.42 8.191c-0.236-0.224-0.381-0.542-0.381-0.894v-14.593c0-0.352 0.147-0.669 0.383-0.892zM29.62 7.809c0.236 0.224 0.381 0.542 0.381 0.894v14.593c0 0.352-0.147 0.669-0.384 0.892l-9.417-8.189 9.42-8.191zM19.29 16.792l8.886 7.73h-24.35l8.886-7.73 3.29 2.86 3.29-2.86zM3.221 6.26c-1.347 0-2.439 1.089-2.439 2.428v14.624c0 1.341 1.083 2.428 2.439 2.428h25.559c1.347 0 2.439-1.089 2.439-2.428v-14.624c0-1.341-1.083-2.428-2.439-2.428h-25.559zM16 18.070l-12.175-10.592h24.35l-12.175 10.592z"/>

</symbol>
<symbol id="external-link" viewBox="0 0 32 32">
<title>external-link</title>
<path d="M20.153 2.98l0.203-2.124 11.41 1.089-1.704 11.335-2.11-0.317 1.369-9.108z"/>
<path d="M29.071 2.186l1.703 1.971-23.758 21.378-1.703-1.971z"/>
<path d="M0 6.4h17.067v2.133h-17.067v-2.133z"/>
<path d="M0 29.867h25.6v2.133h-25.6v-2.133z"/>
<path d="M23.467 14.933h2.133v17.067h-2.133v-17.067z"/>
<path d="M0 6.4h2.133v25.6h-2.133v-25.6z"/>

</symbol>
<symbol id="facebook" viewBox="0 0 24 28">
<title>facebook</title>
<path d="M22.672 2c0.734 0 1.328 0.594 1.328 1.328v21.344c0 0.734-0.594 1.328-1.328 1.328h-6.109v-9.297h3.109l0.469-3.625h-3.578v-2.312c0-1.047 0.281-1.75 1.797-1.75l1.906-0.016v-3.234c-0.328-0.047-1.469-0.141-2.781-0.141-2.766 0-4.672 1.687-4.672 4.781v2.672h-3.125v3.625h3.125v9.297h-11.484c-0.734 0-1.328-0.594-1.328-1.328v-21.344c0-0.734 0.594-1.328 1.328-1.328h21.344z"/>

</symbol>
<symbol id="instagram" viewBox="0 0 24 28">
<title>instagram</title>
<path d="M16 14c0-2.203-1.797-4-4-4s-4 1.797-4 4 1.797 4 4 4 4-1.797 4-4zM18.156 14c0 3.406-2.75 6.156-6.156 6.156s-6.156-2.75-6.156-6.156 2.75-6.156 6.156-6.156 6.156 2.75 6.156 6.156zM19.844 7.594c0 0.797-0.641 1.437-1.437 1.437s-1.437-0.641-1.437-1.437 0.641-1.437 1.437-1.437 1.437 0.641 1.437 1.437zM12 4.156c-1.75 0-5.5-0.141-7.078 0.484-0.547 0.219-0.953 0.484-1.375 0.906s-0.688 0.828-0.906 1.375c-0.625 1.578-0.484 5.328-0.484 7.078s-0.141 5.5 0.484 7.078c0.219 0.547 0.484 0.953 0.906 1.375s0.828 0.688 1.375 0.906c1.578 0.625 5.328 0.484 7.078 0.484s5.5 0.141 7.078-0.484c0.547-0.219 0.953-0.484 1.375-0.906s0.688-0.828 0.906-1.375c0.625-1.578 0.484-5.328 0.484-7.078s0.141-5.5-0.484-7.078c-0.219-0.547-0.484-0.953-0.906-1.375s-0.828-0.688-1.375-0.906c-1.578-0.625-5.328-0.484-7.078-0.484zM24 14c0 1.656 0.016 3.297-0.078 4.953-0.094 1.922-0.531 3.625-1.937 5.031s-3.109 1.844-5.031 1.937c-1.656 0.094-3.297 0.078-4.953 0.078s-3.297 0.016-4.953-0.078c-1.922-0.094-3.625-0.531-5.031-1.937s-1.844-3.109-1.937-5.031c-0.094-1.656-0.078-3.297-0.078-4.953s-0.016-3.297 0.078-4.953c0.094-1.922 0.531-3.625 1.937-5.031s3.109-1.844 5.031-1.937c1.656-0.094 3.297-0.078 4.953-0.078s3.297-0.016 4.953 0.078c1.922 0.094 3.625 0.531 5.031 1.937s1.844 3.109 1.937 5.031c0.094 1.656 0.078 3.297 0.078 4.953z"/>

</symbol>
<symbol id="lightbulb" viewBox="0 0 28 32">
<title>lightbulb</title>
<path d="M13.84 8.014c1.794-0.097 3.498 0.526 4.798 1.757 1.301 1.232 2.018 2.897 2.018 4.689 0 1.678-0.642 3.266-1.81 4.472-1.116 1.159-1.858 2.634-2.125 4.187l-4.933 1.071c-0.062-1.946-0.853-3.812-2.258-5.279-1.171-1.222-1.806-2.828-1.788-4.521 0.037-3.392 2.716-6.192 6.098-6.375zM8.805 19.605c1.284 1.34 1.991 3.056 1.991 4.829v0.365c-0.001 0.040 0.001 0.079 0.010 0.119 0.001 0.005 0.005 0.010 0.006 0.016 0.011 0.045 0.029 0.088 0.052 0.128 0.005 0.008 0.008 0.016 0.013 0.024 0.026 0.041 0.059 0.075 0.096 0.107 0.007 0.006 0.014 0.011 0.021 0.017 0.039 0.030 0.082 0.054 0.129 0.072 0.005 0.002 0.011 0.003 0.016 0.005 0.050 0.017 0.103 0.028 0.159 0.028 0.041 0 0.080-0.006 0.118-0.015l5.851-1.27c0.005-0.001 0.008-0.003 0.013-0.004 0.020-0.005 0.039-0.012 0.058-0.019 0.012-0.005 0.024-0.009 0.035-0.014 0.018-0.008 0.035-0.018 0.051-0.029 0.011-0.007 0.022-0.013 0.033-0.021 0.016-0.012 0.030-0.025 0.045-0.038 0.009-0.008 0.018-0.016 0.027-0.026 0.014-0.015 0.026-0.031 0.038-0.048 0.007-0.009 0.014-0.018 0.020-0.028 0.011-0.017 0.019-0.036 0.028-0.054 0.005-0.011 0.011-0.022 0.015-0.034 0.006-0.018 0.011-0.036 0.016-0.054 0.004-0.014 0.007-0.028 0.010-0.043 0.001-0.006 0.003-0.012 0.004-0.018 0.181-1.468 0.858-2.878 1.909-3.968 1.349-1.394 2.092-3.23 2.092-5.17 0-2.070-0.828-3.994-2.332-5.418-1.502-1.423-3.468-2.143-5.543-2.031-3.909 0.211-7.005 3.447-7.048 7.368-0.021 1.957 0.713 3.814 2.067 5.227z"/>
<path stroke-linejoin="miter" stroke-linecap="butt" stroke-miterlimit="4" stroke-width="0.4706" stroke="#000" fill="#000" d="M13.697 16.086v6.22c0 0.278 0.225 0.502 0.502 0.502s0.502-0.225 0.502-0.502v-6.22l1.816-1.816c0.196-0.196 0.196-0.514 0-0.71s-0.514-0.196-0.71 0l-1.608 1.608-1.608-1.608c-0.196-0.196-0.514-0.196-0.71 0s-0.196 0.514 0 0.71l1.816 1.816z"/>
<path d="M17.024 24.964l-5.863 1.273c-0.271 0.059-0.443 0.326-0.384 0.597 0.051 0.235 0.259 0.396 0.49 0.396 0.035 0 0.071-0.004 0.107-0.012l5.864-1.272c0.271-0.059 0.443-0.327 0.384-0.598s-0.326-0.444-0.598-0.384z"/>
<path d="M17.651 27.266c-0.059-0.271-0.327-0.444-0.597-0.384l-5.864 1.273c-0.271 0.059-0.443 0.327-0.384 0.598 0.051 0.235 0.259 0.396 0.49 0.396 0.035 0 0.071-0.004 0.107-0.012l5.864-1.273c0.271-0.059 0.443-0.326 0.384-0.598z"/>
<path d="M16.484 29.087c0.036-0.275-0.158-0.528-0.433-0.564-0.274-0.035-0.527 0.158-0.564 0.433-0.084 0.642-0.639 1.126-1.29 1.126-0.347 0-0.675-0.136-0.922-0.384-0.070-0.070-0.129-0.143-0.174-0.218-0.143-0.238-0.451-0.315-0.689-0.172s-0.315 0.451-0.172 0.689c0.087 0.145 0.196 0.284 0.324 0.411 0.437 0.438 1.017 0.679 1.633 0.679 1.153 0 2.136-0.86 2.286-2z"/>
<path stroke-linejoin="miter" stroke-linecap="butt" stroke-miterlimit="4" stroke-width="0.9412" stroke="#000" fill="#000" d="M1.444 14.701h3.126c0.278 0 0.502-0.225 0.502-0.502s-0.225-0.502-0.502-0.502h-3.126c-0.278 0-0.502 0.225-0.502 0.502s0.225 0.502 0.502 0.502"/>
<path d="M23.326 14.199c0 0.278 0.225 0.502 0.502 0.502h3.126c0.278 0 0.502-0.225 0.502-0.502s-0.225-0.502-0.502-0.502h-3.126c-0.278 0-0.502 0.225-0.502 0.502z"/>
<path stroke-linejoin="miter" stroke-linecap="butt" stroke-miterlimit="4" stroke-width="0.4706" stroke="#000" fill="#000" d="M0.941 14.233c0 0.278 0.225 0.502 0.502 0.502h3.126c0.278 0 0.502-0.225 0.502-0.502s-0.225-0.502-0.502-0.502h-3.126c-0.278 0-0.502 0.225-0.502 0.502"/>
<path stroke-linejoin="miter" stroke-linecap="butt" stroke-miterlimit="4" stroke-width="0.4706" stroke="#000" fill="#000" d="M14.199 5.072c0.278 0 0.502-0.225 0.502-0.502v-3.126c0-0.278-0.225-0.502-0.502-0.502s-0.502 0.225-0.502 0.502v3.126c0 0.278 0.225 0.502 0.502 0.502"/>
<path stroke-linejoin="miter" stroke-linecap="butt" stroke-miterlimit="4" stroke-width="0.4706" stroke="#000" fill="#000" d="M21.008 7.892c0.129 0 0.257-0.049 0.355-0.147l2.21-2.21c0.196-0.196 0.196-0.514 0-0.71s-0.514-0.196-0.71 0l-2.211 2.21c-0.196 0.196-0.196 0.514 0 0.71 0.098 0.098 0.227 0.147 0.355 0.147"/>
<path stroke-linejoin="miter" stroke-linecap="butt" stroke-miterlimit="4" stroke-width="0.4706" stroke="#000" fill="#000" d="M7.035 20.652l-2.21 2.211c-0.196 0.196-0.196 0.514 0 0.71 0.098 0.098 0.227 0.147 0.355 0.147s0.257-0.049 0.355-0.147l2.21-2.211c0.196-0.196 0.196-0.514 0-0.71s-0.514-0.196-0.711 0"/>
<path stroke-linejoin="miter" stroke-linecap="butt" stroke-miterlimit="4" stroke-width="0.4706" stroke="#000" fill="#000" d="M7.035 7.745c0.098 0.098 0.227 0.147 0.355 0.147s0.257-0.049 0.355-0.147c0.196-0.196 0.196-0.514 0-0.71l-2.21-2.21c-0.196-0.196-0.514-0.196-0.71 0s-0.196 0.514 0 0.71l2.21 2.21z"/>
<path stroke-linejoin="miter" stroke-linecap="butt" stroke-miterlimit="4" stroke-width="0.4706" stroke="#000" fill="#000" d="M23.218 23.72c0.129 0 0.258-0.049 0.356-0.147 0.196-0.196 0.196-0.515 0-0.711l-2.211-2.21c-0.196-0.196-0.514-0.196-0.71 0s-0.196 0.514 0 0.71l2.21 2.211c0.098 0.098 0.226 0.147 0.355 0.147"/>

</symbol>
<symbol id="minus" viewBox="0 0 32 32">
<title>minus</title>
<path d="M32 14.857v2.286h-32v-2.286h32z"/>

</symbol>
<symbol id="note" viewBox="0 0 37 32">
<title>note</title>
<path d="M25.813 27.307c-0.589 0-1.067-0.478-1.067-1.067v-24.107h-22.613v24.107c0 0.589-0.477 1.067-1.067 1.067s-1.067-0.478-1.067-1.067v-25.173c0-0.59 0.478-1.067 1.067-1.067h24.747c0.589 0 1.067 0.477 1.067 1.067v25.173c0 0.589-0.478 1.067-1.067 1.067z"/>
<path d="M30.507 32c-3.177 0-5.761-2.584-5.761-5.76 0-0.589 0.478-1.067 1.067-1.067s1.067 0.478 1.067 1.067c0 2 1.627 3.627 3.627 3.627s3.627-1.627 3.627-3.627v-2.425h-8.321c-0.589 0-1.067-0.477-1.067-1.067s0.478-1.067 1.067-1.067h9.387c0.589 0 1.067 0.478 1.067 1.067v3.492c0 3.176-2.584 5.76-5.76 5.76z"/>
<path d="M30.507 32h-24.747c-3.177 0-5.76-2.584-5.76-5.76 0-0.589 0.477-1.067 1.067-1.067s1.067 0.478 1.067 1.067c0 2 1.627 3.627 3.627 3.627h24.747c0.589 0 1.067 0.478 1.067 1.067s-0.478 1.067-1.067 1.067z"/>
<path d="M20.693 18.347h-14.506c-0.59 0-1.067-0.477-1.067-1.067s0.477-1.067 1.067-1.067h14.506c0.589 0 1.067 0.477 1.067 1.067s-0.478 1.067-1.067 1.067z"/>
<path d="M20.693 24.32h-14.506c-0.59 0-1.067-0.477-1.067-1.067s0.477-1.067 1.067-1.067h14.506c0.589 0 1.067 0.477 1.067 1.067s-0.478 1.067-1.067 1.067z"/>
<path d="M7.253 10.24h12.373v-2.133h-12.373v2.133zM20.693 12.373h-14.507c-0.589 0-1.067-0.477-1.067-1.067v-4.267c0-0.59 0.478-1.067 1.067-1.067h14.507c0.589 0 1.067 0.477 1.067 1.067v4.267c0 0.589-0.478 1.067-1.067 1.067z"/>

</symbol>
<symbol id="pause" viewBox="0 0 24 24">
<title>pause</title>
<path d="M14.016 5.016h3.984v13.969h-3.984v-13.969zM6 18.984v-13.969h3.984v13.969h-3.984z"/>

</symbol>
<symbol id="pdf" viewBox="0 0 32 32">
<title>pdf</title>
<path d="M23.677 6.668c-1.431 0-2.582-1.179-2.582-2.567v-4.024h-15.877c-0.489 0-0.907 0.416-0.907 0.902v30.041c0 0.486 0.419 0.902 0.907 0.902h21.6c0.489 0 0.872-0.416 0.872-0.902v-24.352h-4.013zM11.848 16.139c-0.384 0.347-0.942 0.486-1.745 0.486h-1.152v1.769c0 1.041-1.256 1.041-1.256 0v-4.787c0-0.555 0.244-0.763 0.803-0.763 0.698 0 2.163-0.035 2.722 0.104 1.535 0.416 1.535 2.463 0.628 3.191zM18.757 16.937c-0.209 1.075-0.907 1.873-2.024 2.047l-2.408 0.069c-0.663 0-0.803-0.278-0.803-0.902v-4.544c0-0.555 0.244-0.763 0.768-0.763 0.768 0 2.094-0.069 2.757 0.104 1.605 0.416 2.059 2.428 1.71 3.989zM24.13 13.676c-0.105 0.104-0.244 0.139-0.454 0.139h-2.478v1.596h2.094c0.768 0 0.768 0.937 0 0.937h-2.094v2.047c0 0.902-0.803 0.902-1.082 0.59-0.105-0.139-0.174-0.347-0.174-0.59v-4.787c0-0.555 0.244-0.763 0.768-0.763h2.966c0.698 0 0.698 0.624 0.454 0.833z"/>
<path d="M9.824 13.78h-0.837v1.908h-0.035c0.907 0 2.233 0.173 2.233-0.971 0-0.763-0.523-0.937-1.361-0.937z"/>
<path d="M15.616 13.884h-0.837v4.197c0.523 0 1.396 0.035 1.815-0.104 1.186-0.416 1.117-2.706 0.698-3.4-0.384-0.624-0.942-0.694-1.675-0.694z"/>
<path d="M23.677 5.142h2.931l-4.013-3.989v2.914c0 0.624 0.489 1.075 1.082 1.075z"/>

</symbol>
<symbol id="play" viewBox="0 0 32 32">
<title>play</title>
<path d="M4.5 1l25 15-25 15z"/>

</symbol>
<symbol id="plus" viewBox="0 0 32 32">
<title>plus</title>
<path d="M32 14.857v2.286h-14.857v14.857h-2.286v-14.857h-14.857v-2.286h14.857v-14.857h2.286v14.857h14.857z"/>

</symbol>
<symbol id="search" viewBox="0 0 32 32">
<title>search</title>
<path d="M12.439 0c-6.869 0-12.439 5.569-12.439 12.437s5.57 12.437 12.439 12.437c2.641 0 5.091-0.824 7.105-2.227l0.001-0.001 9.225 9.224c0.171 0.171 0.443 0.176 0.619 0l2.486-2.486c0.171-0.171 0.162-0.455-0.001-0.619l-9.224-9.223c1.403-2.015 2.227-4.464 2.227-7.105 0-6.868-5.57-12.437-12.439-12.437zM12.439 21.948c-5.253 0-9.512-4.258-9.512-9.511s4.258-9.511 9.512-9.511c5.253 0 9.512 4.258 9.512 9.511s-4.258 9.511-9.512 9.511z"/>

</symbol>
<symbol id="share" viewBox="0 0 32 32">
<title>share</title>
<path d="M27 22c-1.411 0-2.685 0.586-3.594 1.526l-13.469-6.734c0.041-0.258 0.063-0.522 0.063-0.791s-0.022-0.534-0.063-0.791l13.469-6.734c0.909 0.94 2.183 1.526 3.594 1.526 2.761 0 5-2.239 5-5s-2.239-5-5-5-5 2.239-5 5c0 0.269 0.022 0.534 0.063 0.791l-13.469 6.734c-0.909-0.94-2.183-1.526-3.594-1.526-2.761 0-5 2.239-5 5s2.239 5 5 5c1.411 0 2.685-0.586 3.594-1.526l13.469 6.734c-0.041 0.258-0.063 0.522-0.063 0.791 0 2.761 2.239 5 5 5s5-2.239 5-5c0-2.761-2.239-5-5-5z"/>

</symbol>
<symbol id="twitter" viewBox="0 0 26 28">
<title>twitter</title>
<path d="M25.312 6.375c-0.688 1-1.547 1.891-2.531 2.609 0.016 0.219 0.016 0.438 0.016 0.656 0 6.672-5.078 14.359-14.359 14.359-2.859 0-5.516-0.828-7.75-2.266 0.406 0.047 0.797 0.063 1.219 0.063 2.359 0 4.531-0.797 6.266-2.156-2.219-0.047-4.078-1.5-4.719-3.5 0.313 0.047 0.625 0.078 0.953 0.078 0.453 0 0.906-0.063 1.328-0.172-2.312-0.469-4.047-2.5-4.047-4.953v-0.063c0.672 0.375 1.453 0.609 2.281 0.641-1.359-0.906-2.25-2.453-2.25-4.203 0-0.938 0.25-1.797 0.688-2.547 2.484 3.062 6.219 5.063 10.406 5.281-0.078-0.375-0.125-0.766-0.125-1.156 0-2.781 2.25-5.047 5.047-5.047 1.453 0 2.766 0.609 3.687 1.594 1.141-0.219 2.234-0.641 3.203-1.219-0.375 1.172-1.172 2.156-2.219 2.781 1.016-0.109 2-0.391 2.906-0.781z"/>

</symbol>
<symbol id="vcard" viewBox="0 0 29 29">
    <!-- Generator: Sketch 54.1 (76490) - https://sketchapp.com -->
    <title>V</title>
    <desc>Created with Sketch.</desc>
    <g id="Symbols" stroke="none" stroke-width="1" fill="none" fill-rule="evenodd">
        <g id="ICONS" transform="translate(-90.000000, -1.000000)">
            <g id="V">
                <g transform="translate(90.000000, 1.000000)">
                    <rect id="Rectangle" fill="#F95C00" fill-rule="nonzero" x="0" y="0" width="29" height="29"/>
                    <polygon id="Fill-2" fill="#0B1047" points="6.59090909 23.7272727 13.1818182 23.7272727 13.1818182 22.4090909 6.59090909 22.4090909"/>
                    <polygon id="Fill-3" fill="#0B1047" points="6.59090909 18.4545455 22.4090909 18.4545455 22.4090909 17.1363636 6.59090909 17.1363636"/>
                    <polygon id="Fill-3" fill="#0B1047" points="6.59090909 21.0909091 22.4090909 21.0909091 22.4090909 19.7727273 6.59090909 19.7727273"/>
                    <polygon id="Fill-5" fill="#0B1047" points="10.5454545 5.27272727 12.6054197 5.27272727 14.6300031 10.5800323 14.6537842 10.5800323 16.7131693 5.27272727 18.6455285 5.27272727 15.2665825 13.3714345 13.8202858 13.3714345"/>
                </g>
            </g>
        </g>
    </g>

</symbol></svg>